<svg id="svg8" width="48" height="48" version="1.1" viewBox="0 0 12.7 12.700001" xmlns="http://www.w3.org/2000/svg" xmlns:xlink="http://www.w3.org/1999/xlink">
    <defs id="defs2">
        <linearGradient id="linearGradient898">
            <stop id="stop894" stop-color="#2a7fff" offset="0"/>
            <stop id="stop896" stop-color="#0cf" offset="1"/>
        </linearGradient>
        <linearGradient id="linearGradient965" x1="47.165039" x2="183.07607" y1="99.105957" y2="235.01698" gradientTransform="matrix(.44648217 0 0 .44648217 59.664951 147.90722)" gradientUnits="userSpaceOnUse">
            <stop id="stop968" stop-color="#0055d4" offset="0"/>
            <stop id="stop970" stop-color="#06f" stop-opacity="0" offset="1"/>
        </linearGradient>
        <linearGradient id="linearGradient1137" x1="61.163261" x2="64.927658" y1="105.1096" y2="109.0449" gradientUnits="userSpaceOnUse">
            <stop id="stop932" stop-color="#e6e6e6" offset="0"/>
            <stop id="stop934" stop-color="#b3b3b3" offset="1"/>
        </linearGradient>
        <linearGradient id="linearGradient1139" x1="77.166962" x2="64.371704" y1="115.71481" y2="112.00438" gradientUnits="userSpaceOnUse">
            <stop id="stop848" stop-color="#0cf" offset="0"/>
            <stop id="stop850" stop-color="#2a7fff" offset="1"/>
        </linearGradient>
        <linearGradient id="linearGradient1141" x1="68.7071" x2="75.81916" y1="113.06454" y2="117.91264" gradientUnits="userSpaceOnUse" xlink:href="#linearGradient898"/>
        <linearGradient id="linearGradient1143" x1="77.401382" x2="68.670082" y1="106.36805" y2="120.35797" gradientUnits="userSpaceOnUse">
            <stop id="stop925" stop-color="#fff" offset="0"/>
            <stop id="stop927" stop-color="#b3b3b3" offset="1"/>
        </linearGradient>
        <linearGradient id="linearGradient1145" x1="68.228661" x2="68.16433" y1="112.73174" y2="118.55463" gradientUnits="userSpaceOnUse">
            <stop id="stop931" stop-color="#b3b3b3" offset="0"/>
            <stop id="stop933" stop-color="#fff" offset="1"/>
        </linearGradient>
        <linearGradient id="linearGradient1147" x1="63.36673" x2="71.135635" y1="106.86487" y2="104.88973" gradientUnits="userSpaceOnUse">
            <stop id="stop944" stop-color="#fff" offset="0"/>
            <stop id="stop946" stop-color="#b3b3b3" offset="1"/>
        </linearGradient>
        <linearGradient id="linearGradient1149" x1="66.951469" x2="66.335762" y1="104.46095" y2="109.66759" gradientUnits="userSpaceOnUse">
            <stop id="stop989" stop-color="#ccc" offset="0"/>
            <stop id="stop991" stop-color="#b3b3b3" offset="1"/>
        </linearGradient>
        <linearGradient id="linearGradient1151" x1="62.960659" x2="77.488457" y1="115.88342" y2="107.31376" gradientUnits="userSpaceOnUse">
            <stop id="stop884" stop-color="#e6e6e6" offset="0"/>
            <stop id="stop886" stop-color="#fff" offset="1"/>
        </linearGradient>
        <linearGradient id="linearGradient1155" x1="220.30621" x2="54.439178" y1="207.9187" y2="42.051666" gradientTransform="matrix(.44648217 0 0 .43479451 59.664951 148.26025)" gradientUnits="userSpaceOnUse" xlink:href="#linearGradient898"/>
        <linearGradient id="linearGradient1163" x1="68.210472" x2="148.52051" y1="177.75131" y2="258.06134" gradientUnits="userSpaceOnUse">
            <stop id="stop1157" stop-color="#59f" offset="0"/>
            <stop id="stop1159" stop-color="#06f" offset="1"/>
        </linearGradient>
    </defs>
    <g id="layer4" transform="translate(-101.33659,-210.85556)">
        <rect id="rect1291" x="40.715607" y="150.1656" width="134.14375" height="134.14375" ry="2.1519225" fill="none"/>
    </g>
    <g id="g923" transform="translate(-101.33659,-210.85556)">
        <g id="g1177" transform="matrix(.094812 0 0 .09481202 97.476605 196.61186)">
            <circle id="path876" cx="107.68657" cy="217.20557" r="55.812187" fill="url(#linearGradient1163)" stroke-width=".0460913"/>
            <ellipse id="circle1153" cx="107.68657" cy="215.74455" rx="55.812187" ry="54.351181" fill="url(#linearGradient1155)" stroke-width=".045484"/>
            <path id="circle949" d="m104.42761 173.43884c-3.17498 21.38886-11.196398 24.89739-26.927573 45.50887l4.506763 10.66624 38.2124 38.21262a55.812184 55.812184 0 0 0 43.27959-50.62107l-42.76116-42.76116z" fill="url(#linearGradient965)" stroke-width=".0460913"/>
            <g id="g921" transform="matrix(4.5475751,0,0,4.6489837,-203.94378,-313.78768)">
                <path id="path905" d="m65.428762 109.91943c-0.79474-2.58086-5.285936-1.9546-6.036655-2.01063 0.842596-0.40914 1.604061-0.74639 3.341118-1.97728 3.346321-2.37122 6.889189-1.85409 8.663362-0.91242-4.85033 0.18036-3.926305 2.76518-3.211896 4.12714-0.908518 0.25814-2.342683 0.64782-2.755929 0.77319z" fill="url(#linearGradient1137)"/>
                <path id="path907" d="m77.401381 106.36805c-1.746608 2.25673-4.650524 5.30573-7.828693 5.70736-3.17817 0.40163-6.208039-0.0433-6.909882 2.27202-0.64633 2.1322 1.626883 4.12293 3.984589 3.64314 2.518769-0.51257 1.974803-3.30514 0.597137-5.20681 1.046467-0.0587 0.851808-0.0435 2.626388-0.131 2.645109 2.20549 3.521857 2.8343 8.143023 6.05209-3.561162-0.36484-4.857257-0.69982-7.41144-2.19429 0.661668 1.62462 2.075907 5.31186 2.382248 8.17285-1.47315-2.07065-2.031632-2.83161-4.314667-4.32544-2.924418-1.9135-5.29286-1.97828-6.663677-4.79745-1.367857-2.81308 0.442686-4.83945 3.682518-5.71701 4.629957-1.2541 8.619281-2.4431 11.712456-3.47546z" fill="url(#linearGradient1139)"/>
                <path id="path909" d="m67.244532 112.78376c1.046467-0.0587 0.851808-0.0435 2.626388-0.131 2.645109 2.20549 3.521857 2.8343 8.143023 6.05209-4.644893-0.32503-8.159344-1.66506-10.769411-5.92109z" fill="url(#linearGradient1141)"/>
                <path id="path911" d="m77.401381 106.36805c-1.746608 2.25673-4.650524 5.30573-7.828693 5.70736-3.17817 0.40163-6.208039-0.0433-6.909882 2.27202-0.64633 2.1322 1.626883 4.12293 3.984589 3.64314 2.518769-0.51257 1.974803-3.30514 0.597137-5.20681 1.046467-0.0587 0.851808-0.0435 2.626388-0.131 2.645109 2.20549 3.521857 2.8343 8.143023 6.05209-3.561162-0.36484-4.857257-0.69982-7.41144-2.19429 0.661668 1.62462 2.075907 5.31186 2.382248 8.17285-1.47315-2.07065-2.031632-2.83161-4.314667-4.32544-2.924418-1.9135-5.29286-1.97828-6.663677-4.79745-1.367857-2.81308 0.442686-4.83945 3.682518-5.71701 4.629957-1.2541 8.619281-2.4431 11.712456-3.47546z" fill="url(#linearGradient1143)"/>
                <path id="path913" d="m67.244532 112.78376c1.046467-0.0587 0.851808-0.0435 2.626388-0.131 2.645109 2.20549 3.521857 2.8343 8.143023 6.05209-4.644893-0.32503-8.159344-1.66506-10.769411-5.92109z" fill="url(#linearGradient1145)"/>
                <path id="path915" d="m59.392107 107.9088c0.842596-0.40914 1.604061-0.74639 3.341118-1.97728 3.346321-2.37122 6.889189-1.85409 8.663362-0.91242-4.85033 0.18036-4.225378 1.1257-4.243278 1.86679-3.222572-0.66446-4.163494 0.2396-7.761202 1.02291z" fill="url(#linearGradient1147)"/>
                <path id="path917" d="m71.396587 105.0191c-4.85033 0.18036-3.926305 2.76518-3.211896 4.12714-0.566006 0.16082-1.179475 0.34403-1.936109 0.53991-3.052938-5.32116 2.656266-6.01341 5.148005-4.66705z" fill="url(#linearGradient1149)"/>
                <path id="path919" d="m62.879799 116.88614c-2.373486-2.98949-1.93525-5.72962 2.712379-7.1533 4.586439-1.40494 8.716028-2.33243 11.809203-3.36479-8.347338 3.11114-18.799839 5.18999-14.521582 10.51809z" fill="url(#linearGradient1151)"/>
            </g>
        </g>
    </g>
    <g id="g1319" transform="translate(-101.33659,-210.85556)" display="none">
        <path id="path1307" d="m100.73522 208.34279c5.56725-0.31926 4.53166-0.23659 13.9725-0.71247 14.07209 11.99495 18.73643 15.41484 43.32123 32.91536-24.71103-1.76773-43.40806-9.05572-57.29373-32.20289z"/>
        <path id="path1305" d="m154.7701 173.44981c-9.29203 12.27363-24.74099 28.85615-41.64899 31.04049-16.907999 2.18433-33.027033-0.2355-36.760868 12.35678-3.438503 11.59635 8.655088 22.42329 21.198185 19.81386 13.399963-2.7877 10.506033-17.97559 3.176793-28.31815 5.56725-0.31926 4.53166-0.23659 13.9725-0.71247 14.07209 11.99495 18.73643 15.41484 43.32123 32.91536-18.94553-1.98424-25.84081-3.80609-39.42918-11.93403 3.5201 8.83578 11.04392 28.88949 12.67366 44.44949-7.83722-11.2616-10.80837-15.40021-22.95421-23.52467-15.55803-10.40691-28.158243-10.75923-35.451048-26.09178-7.277059-15.29944 2.355108-26.32021 19.591154-31.09298 24.631574-6.82064 45.854944-13.28723 62.310774-18.9019z"/>
        <path id="path1299" d="m91.075247 192.76462c-4.228051-14.03647-28.121407-10.63044-32.115264-10.93517 4.482647-2.22518 8.533674-4.05937 17.774892-10.75379 17.802571-12.8963 36.650785-10.08379 46.089455-4.96235-25.803961 0.98092-20.88811 15.03892-17.08742 22.44618-4.83336 1.40394-12.463176 3.52328-14.661663 4.20513z"/>
        <path id="path1309" d="m58.959983 181.82945c4.482647-2.22518 8.533674-4.05937 17.774892-10.75379 17.802571-12.8963 36.650785-10.08379 46.089455-4.96235-25.803961 0.98092-22.47919 6.12231-22.57442 10.15286-17.14422-3.61378-22.149966 1.30311-41.289927 5.56328z"/>
        <path id="path1311" d="m122.82433 166.11331c-25.803961 0.98092-20.88811 15.03892-17.08742 22.44618-3.01118 0.87465-6.27486 1.87107-10.300185 2.93639-16.241762-28.94007 14.131445-32.70499 27.387605-25.38257z"/>
        <path id="path1313" d="m77.514655 230.65431c-12.627048-16.25888-10.295614-31.16156 14.429972-38.90449 24.400053-7.64102 46.369643-12.68534 62.825473-18.30001-44.4082 16.92049-100.01596 28.22668-77.255445 57.2045z"/>
    </g>
</svg>
